<svg width="1600" height="1120" viewBox="0 0 1600 1120" fill="none" xmlns="http://www.w3.org/2000/svg" role="img" aria-labelledby="title desc">
  <title id="title">AI Decision Studio product architecture</title>
  <desc id="desc">Architecture canvas showing the AI Decision Studio frontend, Product API, workflow services, AI runtime, delivery integrations, sidecars, and mounted data roots.</desc>

  <rect width="1600" height="1120" fill="#F8FAFC" />
  <rect x="26" y="26" width="1548" height="1068" rx="18" fill="#FFFFFF" stroke="#D8DEE8" stroke-width="2" />

  <defs>
    <filter id="shadow" x="-12%" y="-12%" width="124%" height="124%">
      <feDropShadow dx="0" dy="10" stdDeviation="12" flood-color="#0F172A" flood-opacity="0.12" />
    </filter>
    <marker id="arrow-blue" markerWidth="12" markerHeight="12" refX="10" refY="6" orient="auto" markerUnits="strokeWidth">
      <path d="M2 2L10 6L2 10" fill="none" stroke="#2563EB" stroke-width="2" stroke-linecap="round" stroke-linejoin="round" />
    </marker>
    <marker id="arrow-cyan" markerWidth="12" markerHeight="12" refX="10" refY="6" orient="auto" markerUnits="strokeWidth">
      <path d="M2 2L10 6L2 10" fill="none" stroke="#0891B2" stroke-width="2" stroke-linecap="round" stroke-linejoin="round" />
    </marker>
    <marker id="arrow-orange" markerWidth="12" markerHeight="12" refX="10" refY="6" orient="auto" markerUnits="strokeWidth">
      <path d="M2 2L10 6L2 10" fill="none" stroke="#F97316" stroke-width="2" stroke-linecap="round" stroke-linejoin="round" />
    </marker>
    <marker id="arrow-green" markerWidth="12" markerHeight="12" refX="10" refY="6" orient="auto" markerUnits="strokeWidth">
      <path d="M2 2L10 6L2 10" fill="none" stroke="#16A34A" stroke-width="2" stroke-linecap="round" stroke-linejoin="round" />
    </marker>
    <style>
      .h1 { font: 800 38px ui-sans-serif, system-ui, -apple-system, BlinkMacSystemFont, "Segoe UI", sans-serif; fill: #0F172A; }
      .sub { font: 500 17px ui-sans-serif, system-ui, -apple-system, BlinkMacSystemFont, "Segoe UI", sans-serif; fill: #64748B; }
      .cap { font: 800 12px ui-sans-serif, system-ui, -apple-system, BlinkMacSystemFont, "Segoe UI", sans-serif; fill: #64748B; letter-spacing: 1.8px; }
      .title { font: 800 22px ui-sans-serif, system-ui, -apple-system, BlinkMacSystemFont, "Segoe UI", sans-serif; fill: #111827; }
      .label { font: 700 16px ui-sans-serif, system-ui, -apple-system, BlinkMacSystemFont, "Segoe UI", sans-serif; fill: #111827; }
      .body { font: 500 14px ui-sans-serif, system-ui, -apple-system, BlinkMacSystemFont, "Segoe UI", sans-serif; fill: #475569; }
      .tiny { font: 700 12px ui-sans-serif, system-ui, -apple-system, BlinkMacSystemFont, "Segoe UI", sans-serif; fill: #64748B; }
      .mono { font: 700 12px ui-monospace, SFMono-Regular, Menlo, Monaco, Consolas, "Liberation Mono", monospace; fill: #334155; }
      .card { fill: #FFFFFF; stroke: #CBD5E1; stroke-width: 1.6; }
      .zone { fill: #F8FAFC; stroke: #E2E8F0; stroke-width: 1.6; }
      .dashed { fill: #FFFFFF; stroke: #111827; stroke-width: 1.8; stroke-dasharray: 8 7; }
      .chip { fill: #F8FAFC; stroke: #CBD5E1; stroke-width: 1; }
    </style>
  </defs>

  <text x="72" y="82" class="cap">CURRENT PRODUCT ARCHITECTURE</text>
  <text x="72" y="126" class="h1">AI Decision Studio</text>
  <text x="72" y="158" class="sub">Document-grounded decision workflows backed by a measurable AI engineering layer and portable Docker/AWS runtime roots.</text>

  <g transform="translate(1236 58)">
    <rect width="276" height="82" rx="18" fill="#F8FAFC" stroke="#CBD5E1" />
    <text x="22" y="32" class="cap">DEPLOYMENT</text>
    <text x="22" y="60" class="label">Local Docker + AWS slim</text>
  </g>

  <line x1="548" y1="210" x2="548" y2="885" stroke="#CBD5E1" stroke-width="3" stroke-dasharray="12 12" />
  <text x="360" y="238" class="cap">PUBLIC EDGE</text>
  <text x="590" y="238" class="cap">PRIVATE PRODUCT NETWORK</text>

  <g filter="url(#shadow)">
    <rect x="78" y="322" width="216" height="126" rx="12" class="card" />
    <rect x="104" y="356" width="62" height="44" rx="7" fill="#2563EB" />
    <text x="124" y="384" font-family="ui-sans-serif, system-ui" font-size="18" font-weight="900" fill="#FFFFFF">UI</text>
    <text x="184" y="360" class="title">User</text>
    <text x="184" y="386" class="body">browser session</text>
    <text x="104" y="430" class="tiny">React/Vite workbench</text>
  </g>

  <g filter="url(#shadow)">
    <rect x="344" y="292" width="260" height="186" rx="12" class="dashed" />
    <text x="376" y="326" class="title">Frontend</text>
    <text x="376" y="351" class="body">static app served by Nginx</text>
    <text x="376" y="377" class="mono">Dockerfile.frontend</text>
    <rect x="376" y="406" width="50" height="42" rx="8" fill="#22C55E" />
    <text x="393" y="433" font-family="ui-sans-serif, system-ui" font-size="21" font-weight="900" fill="#FFFFFF">N</text>
    <g transform="translate(444 411)">
      <ellipse cx="24" cy="18" rx="24" ry="8" stroke="#38BDF8" stroke-width="2" />
      <ellipse cx="24" cy="18" rx="24" ry="8" stroke="#38BDF8" stroke-width="2" transform="rotate(60 24 18)" />
      <ellipse cx="24" cy="18" rx="24" ry="8" stroke="#38BDF8" stroke-width="2" transform="rotate(120 24 18)" />
      <circle cx="24" cy="18" r="4" fill="#38BDF8" />
    </g>
    <path d="M532 410L568 410L548 448H584L528 474L548 435H516L532 410Z" fill="#A78BFA" />
  </g>

  <path d="M294 385H344" stroke="#2563EB" stroke-width="3" marker-end="url(#arrow-blue)" />
  <text x="309" y="368" class="tiny">HTTPS</text>

  <g filter="url(#shadow)">
    <rect x="690" y="282" width="330" height="206" rx="12" class="dashed" />
    <rect x="724" y="330" width="64" height="52" rx="8" fill="#0EA5E9" />
    <text x="738" y="363" font-family="ui-sans-serif, system-ui" font-size="23" font-weight="900" fill="#FFFFFF">PY</text>
    <text x="810" y="322" class="title">Product API</text>
    <text x="810" y="348" class="body">orchestration and API contract</text>
    <text x="810" y="374" class="mono">main_product_api.py</text>
    <rect x="724" y="418" width="88" height="30" rx="15" fill="#EFF6FF" stroke="#BFDBFE" />
    <text x="742" y="438" class="tiny">/product</text>
    <rect x="824" y="418" width="68" height="30" rx="15" fill="#ECFEFF" stroke="#A5F3FC" />
    <text x="846" y="438" class="tiny">/lab</text>
    <rect x="904" y="418" width="82" height="30" rx="15" fill="#F8FAFC" stroke="#CBD5E1" />
    <text x="927" y="438" class="tiny">/auth</text>
  </g>

  <path d="M604 385H690" stroke="#2563EB" stroke-width="3" marker-end="url(#arrow-blue)" />
  <text x="627" y="368" class="tiny">HTTP JSON</text>

  <g filter="url(#shadow)">
    <rect x="1132" y="244" width="380" height="284" rx="18" class="zone" />
    <text x="1180" y="278" class="title">AI Runtime Context</text>
    <rect x="1164" y="310" width="316" height="84" rx="12" class="dashed" />
    <text x="1194" y="340" class="label">Model providers</text>
    <rect x="1194" y="356" width="66" height="28" rx="14" fill="#111827" />
    <text x="1209" y="375" font-family="ui-sans-serif, system-ui" font-size="13" font-weight="800" fill="#FFFFFF">Ollama</text>
    <circle cx="1294" cy="370" r="15" fill="#FFFFFF" stroke="#CBD5E1" />
    <path d="M1285 370C1291 359 1300 359 1306 370C1300 381 1291 381 1285 370Z" stroke="#111827" stroke-width="2" fill="none" />
    <text x="1322" y="375" class="tiny">OpenAI</text>
    <rect x="1392" y="356" width="58" height="28" rx="14" fill="#FFFAEB" stroke="#FDE68A" />
    <text x="1408" y="375" class="tiny">HF</text>

    <rect x="1164" y="420" width="316" height="78" rx="12" class="dashed" />
    <text x="1194" y="450" class="label">RAG index</text>
    <ellipse cx="1318" cy="454" rx="38" ry="12" fill="#22D3EE" />
    <rect x="1280" y="454" width="76" height="28" fill="#0891B2" />
    <ellipse cx="1318" cy="482" rx="38" ry="12" fill="#0E7490" />
    <text x="1294" y="463" font-family="ui-sans-serif, system-ui" font-size="12" font-weight="900" fill="#FFFFFF">Chroma</text>
    <text x="1374" y="460" class="tiny">LangChain</text>
    <text x="1374" y="480" class="tiny">embeddings</text>
  </g>

  <path d="M1020 365H1132" stroke="#0891B2" stroke-width="3" marker-end="url(#arrow-cyan)" />
  <text x="1050" y="347" class="tiny">model calls</text>

  <g filter="url(#shadow)">
    <rect x="620" y="610" width="350" height="262" rx="18" class="zone" />
    <text x="675" y="646" class="title">Workflow Context</text>
    <rect x="652" y="678" width="286" height="74" rx="12" class="dashed" />
    <text x="682" y="708" class="label">Business workflows</text>
    <text x="682" y="734" class="body">Review, compare, plan, candidate review</text>
    <rect x="652" y="778" width="286" height="64" rx="12" class="dashed" />
    <text x="682" y="807" class="label">Run history + telemetry</text>
    <text x="682" y="832" class="mono">src/product + src/storage</text>
  </g>

  <path d="M842 488V608" stroke="#2563EB" stroke-width="3" marker-end="url(#arrow-blue)" />
  <text x="862" y="552" class="tiny">workflow execution</text>

  <g filter="url(#shadow)">
    <rect x="1010" y="610" width="270" height="262" rx="18" class="zone" />
    <text x="1064" y="646" class="title">AI Lab Context</text>
    <rect x="1040" y="678" width="210" height="64" rx="12" class="dashed" />
    <text x="1070" y="707" class="label">Evals</text>
    <text x="1070" y="731" class="body">benchmarks and diagnosis</text>
    <rect x="1040" y="770" width="210" height="72" rx="12" class="dashed" />
    <text x="1070" y="799" class="label">Observability</text>
    <text x="1070" y="824" class="mono">src/evals + scripts</text>
  </g>

  <path d="M988 452C1045 500 1080 550 1115 608" stroke="#0891B2" stroke-width="3" stroke-dasharray="10 8" marker-end="url(#arrow-cyan)" />
  <text x="1046" y="539" class="tiny">lab payloads</text>

  <g filter="url(#shadow)">
    <rect x="1320" y="610" width="220" height="262" rx="18" class="zone" />
    <text x="1360" y="646" class="title">Delivery</text>
    <rect x="1350" y="676" width="160" height="70" rx="12" class="dashed" />
    <path d="M1384 706C1389 696 1398 694 1406 701C1416 697 1428 702 1430 714H1366C1368 707 1375 703 1384 706Z" fill="#0082C9" />
    <text x="1368" y="735" class="tiny">Nextcloud</text>
    <rect x="1350" y="770" width="160" height="72" rx="12" class="dashed" />
    <rect x="1372" y="790" width="28" height="36" rx="4" fill="#2563EB" />
    <rect x="1406" y="790" width="28" height="36" rx="4" fill="#2563EB" />
    <text x="1450" y="801" class="tiny">Trello</text>
    <rect x="1450" y="814" width="32" height="28" rx="3" fill="#111827" />
    <text x="1460" y="834" font-family="ui-sans-serif, system-ui" font-size="18" font-weight="900" fill="#FFFFFF">N</text>
    <text x="1488" y="834" class="tiny">Notion</text>
  </g>

  <path d="M1020 430C1130 510 1238 570 1320 652" stroke="#F97316" stroke-width="3" marker-end="url(#arrow-orange)" />
  <text x="1182" y="585" class="tiny">delivery actions</text>

  <g filter="url(#shadow)">
    <rect x="1140" y="112" width="372" height="90" rx="16" fill="#FFF7ED" stroke="#FDBA74" />
    <text x="1168" y="146" class="cap">SIDECARS</text>
    <text x="1168" y="174" class="body">Nextcloud, Ollama, ppt-creator, Docker volumes</text>
  </g>

  <g filter="url(#shadow)">
    <rect x="78" y="920" width="1434" height="114" rx="18" fill="#F8FAFC" stroke="#CBD5E1" />
    <text x="108" y="956" class="cap">MOUNTED DATA ROOTS</text>
    <text x="108" y="984" class="body">Product API reads /app/baseline and writes /app/runtime, /app/artifacts, and /app/users through the same local Docker and AWS slim contract.</text>
    <rect x="760" y="970" width="104" height="34" rx="17" fill="#EFF6FF" stroke="#BFDBFE" />
    <text x="782" y="992" class="tiny">baseline</text>
    <rect x="878" y="970" width="102" height="34" rx="17" fill="#ECFEFF" stroke="#A5F3FC" />
    <text x="902" y="992" class="tiny">runtime</text>
    <rect x="994" y="970" width="112" height="34" rx="17" fill="#FFF7ED" stroke="#FDBA74" />
    <text x="1018" y="992" class="tiny">artifacts</text>
    <rect x="1120" y="970" width="82" height="34" rx="17" fill="#F0FDF4" stroke="#BBF7D0" />
    <text x="1144" y="992" class="tiny">users</text>
    <rect x="1340" y="970" width="82" height="34" rx="17" fill="#FFFFFF" stroke="#CBD5E1" />
    <text x="1364" y="992" class="tiny">Docker</text>
    <rect x="1436" y="970" width="58" height="34" rx="17" fill="#FFFFFF" stroke="#CBD5E1" />
    <text x="1454" y="992" class="tiny">AWS</text>
  </g>

  <path d="M795 872V918" stroke="#16A34A" stroke-width="3" marker-end="url(#arrow-green)" />
  <path d="M1145 872V918" stroke="#16A34A" stroke-width="3" marker-end="url(#arrow-green)" />
  <path d="M1430 872V918" stroke="#16A34A" stroke-width="3" marker-end="url(#arrow-green)" />
</svg>
