<svg width="1304" height="240" viewBox="0 0 1304 240" fill="none" xmlns="http://www.w3.org/2000/svg">
<g clip-path="url(#clip0_208_2440)">
<path d="M1304 0H0V240H1304V0Z" fill="#020817"/>
<path d="M422 188C459.555 188 490 157.555 490 120C490 82.4446 459.555 52 422 52C384.445 52 354 82.4446 354 120C354 157.555 384.445 188 422 188Z" fill="url(#paint0_radial_208_2440)"/>
<path d="M422 64L478 120L422 176L366 120L422 64Z" fill="url(#paint1_linear_208_2440)"/>
<path d="M422 64L366 120L422 176V120V64Z" fill="url(#paint2_linear_208_2440)" fill-opacity="0.96"/>
<path d="M422 64L478 120L422 176V120V64Z" fill="url(#paint3_linear_208_2440)" fill-opacity="0.88"/>
<path d="M422 64L478 120H422H366L422 64Z" fill="white" fill-opacity="0.09"/>
<path d="M422 88L454 120L422 152L390 120L422 88Z" fill="#081226" stroke="#93C5FD" stroke-opacity="0.58" stroke-width="2.4"/>
<path d="M422 129.5C427.247 129.5 431.5 125.247 431.5 120C431.5 114.753 427.247 110.5 422 110.5C416.753 110.5 412.5 114.753 412.5 120C412.5 125.247 416.753 129.5 422 129.5Z" fill="url(#paint4_radial_208_2440)"/>
<path d="M422 123.5C423.933 123.5 425.5 121.933 425.5 120C425.5 118.067 423.933 116.5 422 116.5C420.067 116.5 418.5 118.067 418.5 120C418.5 121.933 420.067 123.5 422 123.5Z" fill="white"/>
<path d="M511.428 132H503.19L515.743 95.6364H525.651L538.186 132H529.947L520.839 103.946H520.555L511.428 132ZM510.913 117.707H530.374V123.708H510.913V117.707ZM548.742 104.727L553.749 114.262L558.88 104.727H566.64L558.738 118.364L566.853 132H559.129L553.749 122.572L548.458 132H540.645L548.742 118.364L540.929 104.727H548.742ZM571.132 132V104.727H578.696V132H571.132ZM574.931 101.212C573.807 101.212 572.842 100.839 572.037 100.093C571.244 99.3355 570.848 98.4299 570.848 97.3764C570.848 96.3348 571.244 95.4411 572.037 94.6953C572.842 93.9377 573.807 93.5589 574.931 93.5589C576.056 93.5589 577.015 93.9377 577.808 94.6953C578.613 95.4411 579.015 96.3348 579.015 97.3764C579.015 98.4299 578.613 99.3355 577.808 100.093C577.015 100.839 576.056 101.212 574.931 101.212ZM597.077 132.533C594.319 132.533 591.934 131.947 589.922 130.775C587.921 129.591 586.376 127.946 585.287 125.839C584.198 123.72 583.654 121.264 583.654 118.47C583.654 115.653 584.198 113.191 585.287 111.084C586.376 108.965 587.921 107.32 589.922 106.148C591.934 104.964 594.319 104.372 597.077 104.372C599.835 104.372 602.215 104.964 604.215 106.148C606.227 107.32 607.778 108.965 608.867 111.084C609.956 113.191 610.501 115.653 610.501 118.47C610.501 121.264 609.956 123.72 608.867 125.839C607.778 127.946 606.227 129.591 604.215 130.775C602.215 131.947 599.835 132.533 597.077 132.533ZM597.113 126.673C598.367 126.673 599.415 126.318 600.256 125.608C601.096 124.886 601.729 123.903 602.155 122.661C602.593 121.418 602.812 120.003 602.812 118.417C602.812 116.831 602.593 115.416 602.155 114.173C601.729 112.93 601.096 111.948 600.256 111.226C599.415 110.504 598.367 110.143 597.113 110.143C595.846 110.143 594.781 110.504 593.917 111.226C593.064 111.948 592.419 112.93 591.981 114.173C591.555 115.416 591.342 116.831 591.342 118.417C591.342 120.003 591.555 121.418 591.981 122.661C592.419 123.903 593.064 124.886 593.917 125.608C594.781 126.318 595.846 126.673 597.113 126.673ZM639.966 104.727L630.431 132H621.909L612.374 104.727H620.364L626.028 124.241H626.312L631.958 104.727H639.966ZM650.881 132.515C649.141 132.515 647.591 132.213 646.229 131.609C644.868 130.994 643.791 130.088 642.998 128.893C642.217 127.685 641.826 126.182 641.826 124.383C641.826 122.868 642.104 121.595 642.661 120.565C643.217 119.536 643.974 118.707 644.933 118.08C645.892 117.452 646.981 116.979 648.2 116.659C649.431 116.339 650.722 116.115 652.071 115.984C653.657 115.819 654.936 115.665 655.906 115.523C656.877 115.369 657.581 115.144 658.019 114.848C658.457 114.552 658.676 114.114 658.676 113.534V113.428C658.676 112.303 658.321 111.433 657.611 110.817C656.912 110.202 655.918 109.894 654.628 109.894C653.267 109.894 652.183 110.196 651.379 110.8C650.574 111.392 650.041 112.137 649.781 113.037L642.785 112.469C643.14 110.812 643.838 109.379 644.88 108.172C645.922 106.953 647.265 106.018 648.911 105.366C650.568 104.704 652.485 104.372 654.663 104.372C656.179 104.372 657.629 104.55 659.013 104.905C660.41 105.26 661.647 105.81 662.724 106.556C663.813 107.302 664.672 108.261 665.299 109.433C665.926 110.593 666.24 111.983 666.24 113.605V132H659.067V128.218H658.854C658.416 129.07 657.83 129.822 657.096 130.473C656.362 131.112 655.48 131.615 654.45 131.982C653.42 132.337 652.231 132.515 650.881 132.515ZM653.048 127.295C654.16 127.295 655.143 127.076 655.995 126.638C656.847 126.188 657.516 125.584 658.001 124.827C658.487 124.069 658.729 123.211 658.729 122.252V119.358C658.493 119.512 658.167 119.654 657.753 119.784C657.35 119.902 656.895 120.015 656.386 120.121C655.877 120.216 655.368 120.305 654.859 120.388C654.35 120.459 653.888 120.524 653.474 120.583C652.586 120.713 651.811 120.92 651.148 121.205C650.485 121.489 649.97 121.873 649.603 122.359C649.236 122.832 649.053 123.424 649.053 124.134C649.053 125.164 649.425 125.951 650.171 126.496C650.929 127.028 651.888 127.295 653.048 127.295ZM679.672 116.233V132H672.108V104.727H679.317V109.539H679.637C680.24 107.953 681.252 106.698 682.673 105.775C684.093 104.84 685.816 104.372 687.84 104.372C689.734 104.372 691.385 104.786 692.794 105.615C694.202 106.444 695.297 107.627 696.078 109.166C696.86 110.693 697.25 112.516 697.25 114.635V132H689.686V115.984C689.698 114.315 689.272 113.013 688.408 112.078C687.544 111.131 686.354 110.658 684.839 110.658C683.821 110.658 682.922 110.877 682.14 111.315C681.371 111.753 680.767 112.392 680.329 113.232C679.903 114.061 679.684 115.061 679.672 116.233ZM715.534 132.533C712.741 132.533 710.338 131.941 708.325 130.757C706.325 129.562 704.786 127.904 703.709 125.786C702.644 123.667 702.111 121.228 702.111 118.47C702.111 115.677 702.65 113.226 703.727 111.119C704.816 109 706.36 107.349 708.361 106.165C710.361 104.97 712.741 104.372 715.499 104.372C717.878 104.372 719.961 104.804 721.749 105.668C723.536 106.532 724.951 107.746 725.992 109.308C727.034 110.871 727.608 112.705 727.715 114.812H720.577C720.376 113.451 719.843 112.356 718.979 111.528C718.127 110.687 717.008 110.267 715.623 110.267C714.451 110.267 713.427 110.587 712.551 111.226C711.687 111.853 711.012 112.771 710.527 113.978C710.042 115.185 709.799 116.647 709.799 118.364C709.799 120.104 710.036 121.583 710.509 122.803C710.995 124.022 711.675 124.951 712.551 125.59C713.427 126.229 714.451 126.549 715.623 126.549C716.487 126.549 717.262 126.371 717.949 126.016C718.647 125.661 719.222 125.146 719.671 124.472C720.133 123.785 720.435 122.962 720.577 122.004H727.715C727.596 124.087 727.028 125.922 726.01 127.508C725.004 129.082 723.613 130.313 721.838 131.201C720.062 132.089 717.961 132.533 715.534 132.533ZM744.987 132.533C742.181 132.533 739.766 131.964 737.742 130.828C735.73 129.68 734.179 128.058 733.09 125.963C732.001 123.856 731.457 121.364 731.457 118.488C731.457 115.683 732.001 113.22 733.09 111.102C734.179 108.983 735.712 107.331 737.689 106.148C739.678 104.964 742.009 104.372 744.685 104.372C746.484 104.372 748.159 104.662 749.71 105.242C751.272 105.81 752.633 106.669 753.793 107.817C754.965 108.965 755.877 110.409 756.528 112.149C757.179 113.877 757.504 115.902 757.504 118.222V120.299H734.475V115.612H750.384C750.384 114.522 750.147 113.558 749.674 112.717C749.201 111.877 748.544 111.22 747.703 110.746C746.875 110.261 745.91 110.018 744.809 110.018C743.661 110.018 742.643 110.285 741.755 110.817C740.879 111.338 740.192 112.043 739.695 112.93C739.198 113.806 738.944 114.783 738.932 115.86V120.317C738.932 121.666 739.18 122.832 739.678 123.815C740.187 124.797 740.903 125.555 741.826 126.087C742.749 126.62 743.844 126.886 745.111 126.886C745.951 126.886 746.721 126.768 747.419 126.531C748.117 126.295 748.715 125.939 749.212 125.466C749.71 124.992 750.088 124.412 750.349 123.726L757.344 124.188C756.989 125.868 756.261 127.336 755.161 128.591C754.071 129.834 752.663 130.804 750.935 131.503C749.218 132.189 747.236 132.533 744.987 132.533Z" fill="#F8FAFC"/>
<path d="M773.761 132V117.455H775.438V122.824H775.58C775.703 122.634 775.873 122.393 776.091 122.099C776.313 121.801 776.631 121.536 777.043 121.304C777.459 121.067 778.023 120.949 778.733 120.949C779.652 120.949 780.461 121.179 781.162 121.638C781.863 122.097 782.41 122.748 782.803 123.591C783.196 124.434 783.392 125.428 783.392 126.574C783.392 127.729 783.196 128.731 782.803 129.578C782.41 130.421 781.865 131.074 781.169 131.538C780.473 131.998 779.67 132.227 778.761 132.227C778.061 132.227 777.5 132.111 777.078 131.879C776.657 131.643 776.332 131.375 776.105 131.077C775.878 130.774 775.703 130.523 775.58 130.324H775.381V132H773.761ZM775.409 126.545C775.409 127.369 775.53 128.096 775.771 128.726C776.013 129.351 776.366 129.841 776.83 130.196C777.294 130.546 777.862 130.722 778.534 130.722C779.235 130.722 779.82 130.537 780.288 130.168C780.762 129.794 781.117 129.292 781.354 128.662C781.595 128.027 781.716 127.322 781.716 126.545C781.716 125.778 781.598 125.087 781.361 124.472C781.129 123.851 780.776 123.361 780.303 123.001C779.834 122.637 779.244 122.455 778.534 122.455C777.852 122.455 777.279 122.627 776.815 122.973C776.351 123.314 776.001 123.792 775.764 124.408C775.527 125.018 775.409 125.731 775.409 126.545ZM786.645 136.091C786.361 136.091 786.107 136.067 785.885 136.02C785.662 135.977 785.509 135.935 785.423 135.892L785.849 134.415C786.257 134.519 786.616 134.557 786.929 134.528C787.241 134.5 787.518 134.36 787.76 134.109C788.006 133.863 788.231 133.463 788.435 132.909L788.747 132.057L784.713 121.091H786.531L789.543 129.784H789.656L792.668 121.091H794.486L789.855 133.591C789.647 134.154 789.389 134.621 789.081 134.99C788.773 135.364 788.416 135.641 788.009 135.821C787.606 136.001 787.152 136.091 786.645 136.091ZM807.039 132H802.55V117.455H807.238C808.649 117.455 809.856 117.746 810.86 118.328C811.864 118.906 812.633 119.737 813.168 120.821C813.703 121.901 813.971 123.193 813.971 124.699C813.971 126.214 813.701 127.518 813.161 128.612C812.621 129.701 811.835 130.539 810.803 131.126C809.771 131.709 808.516 132 807.039 132ZM804.312 130.438H806.925C808.128 130.438 809.125 130.205 809.915 129.741C810.706 129.277 811.296 128.617 811.684 127.76C812.072 126.903 812.266 125.883 812.266 124.699C812.266 123.525 812.075 122.514 811.691 121.666C811.308 120.814 810.735 120.161 809.972 119.706C809.21 119.247 808.261 119.017 807.124 119.017H804.312V130.438ZM819.908 132.256C819.217 132.256 818.59 132.125 818.026 131.865C817.463 131.6 817.015 131.219 816.684 130.722C816.353 130.22 816.187 129.614 816.187 128.903C816.187 128.278 816.31 127.772 816.556 127.384C816.802 126.991 817.131 126.683 817.543 126.46C817.955 126.238 818.41 126.072 818.907 125.963C819.409 125.849 819.913 125.759 820.42 125.693C821.083 125.608 821.62 125.544 822.032 125.501C822.449 125.454 822.752 125.376 822.941 125.267C823.135 125.158 823.232 124.969 823.232 124.699V124.642C823.232 123.941 823.04 123.397 822.657 123.009C822.278 122.62 821.703 122.426 820.931 122.426C820.131 122.426 819.504 122.601 819.049 122.952C818.594 123.302 818.275 123.676 818.09 124.074L816.499 123.506C816.783 122.843 817.162 122.327 817.636 121.957C818.114 121.583 818.635 121.323 819.198 121.176C819.766 121.025 820.325 120.949 820.874 120.949C821.225 120.949 821.627 120.991 822.082 121.077C822.541 121.157 822.984 121.325 823.41 121.581C823.841 121.837 824.198 122.223 824.482 122.739C824.766 123.255 824.908 123.946 824.908 124.812V132H823.232V130.523H823.147C823.033 130.759 822.844 131.013 822.579 131.283C822.314 131.553 821.961 131.782 821.521 131.972C821.08 132.161 820.543 132.256 819.908 132.256ZM820.164 130.75C820.827 130.75 821.386 130.62 821.84 130.359C822.299 130.099 822.645 129.763 822.877 129.351C823.114 128.939 823.232 128.506 823.232 128.051V126.517C823.161 126.602 823.005 126.68 822.763 126.751C822.527 126.818 822.252 126.877 821.94 126.929C821.632 126.976 821.331 127.019 821.038 127.057C820.749 127.09 820.514 127.118 820.335 127.142C819.899 127.199 819.492 127.291 819.113 127.419C818.739 127.542 818.436 127.729 818.204 127.98C817.977 128.226 817.863 128.562 817.863 128.989C817.863 129.571 818.078 130.011 818.509 130.31C818.945 130.603 819.496 130.75 820.164 130.75ZM829.644 125.438V132H827.968V121.091H829.587V122.795H829.729C829.985 122.241 830.373 121.796 830.894 121.46C831.415 121.119 832.087 120.949 832.911 120.949C833.65 120.949 834.296 121.1 834.85 121.403C835.404 121.702 835.835 122.156 836.142 122.767C836.45 123.373 836.604 124.14 836.604 125.068V132H834.928V125.182C834.928 124.325 834.705 123.657 834.26 123.179C833.815 122.696 833.204 122.455 832.428 122.455C831.893 122.455 831.415 122.571 830.993 122.803C830.577 123.035 830.248 123.373 830.006 123.818C829.765 124.263 829.644 124.803 829.644 125.438ZM840.356 136.091C840.072 136.091 839.818 136.067 839.596 136.02C839.373 135.977 839.219 135.935 839.134 135.892L839.56 134.415C839.968 134.519 840.327 134.557 840.64 134.528C840.952 134.5 841.229 134.36 841.471 134.109C841.717 133.863 841.942 133.463 842.146 132.909L842.458 132.057L838.424 121.091H840.242L843.254 129.784H843.367L846.379 121.091H848.197L843.566 133.591C843.358 134.154 843.1 134.621 842.792 134.99C842.484 135.364 842.127 135.641 841.719 135.821C841.317 136.001 840.862 136.091 840.356 136.091ZM854.592 132.227C853.541 132.227 852.634 131.995 851.872 131.531C851.115 131.062 850.53 130.409 850.118 129.571C849.711 128.728 849.507 127.748 849.507 126.631C849.507 125.513 849.711 124.528 850.118 123.676C850.53 122.819 851.103 122.152 851.837 121.673C852.575 121.19 853.437 120.949 854.422 120.949C854.99 120.949 855.551 121.044 856.105 121.233C856.659 121.422 857.163 121.73 857.618 122.156C858.072 122.578 858.435 123.136 858.705 123.832C858.974 124.528 859.109 125.385 859.109 126.403V127.114H850.7V125.665H857.405C857.405 125.049 857.282 124.5 857.036 124.017C856.794 123.534 856.448 123.153 855.999 122.874C855.554 122.594 855.028 122.455 854.422 122.455C853.754 122.455 853.177 122.62 852.689 122.952C852.206 123.278 851.834 123.705 851.574 124.23C851.313 124.756 851.183 125.319 851.183 125.92V126.886C851.183 127.71 851.325 128.409 851.609 128.982C851.898 129.55 852.298 129.983 852.81 130.281C853.321 130.575 853.915 130.722 854.592 130.722C855.033 130.722 855.43 130.66 855.786 130.537C856.145 130.409 856.455 130.22 856.716 129.969C856.976 129.713 857.178 129.396 857.32 129.017L858.939 129.472C858.768 130.021 858.482 130.504 858.08 130.92C857.677 131.332 857.18 131.654 856.588 131.886C855.996 132.114 855.331 132.227 854.592 132.227ZM863.335 117.455V132H861.659V117.455H863.335ZM872.257 132V117.455H874.019V130.438H880.78V132H872.257ZM886.49 132.256C885.799 132.256 885.172 132.125 884.608 131.865C884.045 131.6 883.597 131.219 883.266 130.722C882.935 130.22 882.769 129.614 882.769 128.903C882.769 128.278 882.892 127.772 883.138 127.384C883.384 126.991 883.713 126.683 884.125 126.46C884.537 126.238 884.992 126.072 885.489 125.963C885.991 125.849 886.495 125.759 887.002 125.693C887.665 125.608 888.202 125.544 888.614 125.501C889.031 125.454 889.334 125.376 889.523 125.267C889.717 125.158 889.814 124.969 889.814 124.699V124.642C889.814 123.941 889.623 123.397 889.239 123.009C888.86 122.62 888.285 122.426 887.513 122.426C886.713 122.426 886.086 122.601 885.631 122.952C885.176 123.302 884.857 123.676 884.672 124.074L883.081 123.506C883.365 122.843 883.744 122.327 884.218 121.957C884.696 121.583 885.217 121.323 885.78 121.176C886.348 121.025 886.907 120.949 887.456 120.949C887.807 120.949 888.209 120.991 888.664 121.077C889.123 121.157 889.566 121.325 889.992 121.581C890.423 121.837 890.78 122.223 891.064 122.739C891.348 123.255 891.49 123.946 891.49 124.812V132H889.814V130.523H889.729C889.615 130.759 889.426 131.013 889.161 131.283C888.896 131.553 888.543 131.782 888.103 131.972C887.662 132.161 887.125 132.256 886.49 132.256ZM886.746 130.75C887.409 130.75 887.968 130.62 888.422 130.359C888.882 130.099 889.227 129.763 889.459 129.351C889.696 128.939 889.814 128.506 889.814 128.051V126.517C889.743 126.602 889.587 126.68 889.346 126.751C889.109 126.818 888.834 126.877 888.522 126.929C888.214 126.976 887.913 127.019 887.62 127.057C887.331 127.09 887.096 127.118 886.917 127.142C886.481 127.199 886.074 127.291 885.695 127.419C885.321 127.542 885.018 127.729 884.786 127.98C884.559 128.226 884.445 128.562 884.445 128.989C884.445 129.571 884.66 130.011 885.091 130.31C885.527 130.603 886.078 130.75 886.746 130.75ZM894.55 132V121.091H896.169V122.795H896.311C896.538 122.213 896.905 121.761 897.412 121.439C897.919 121.112 898.527 120.949 899.237 120.949C899.957 120.949 900.556 121.112 901.034 121.439C901.517 121.761 901.893 122.213 902.163 122.795H902.277C902.556 122.232 902.975 121.785 903.534 121.453C904.093 121.117 904.763 120.949 905.544 120.949C906.519 120.949 907.317 121.254 907.938 121.865C908.558 122.471 908.868 123.416 908.868 124.699V132H907.192V124.699C907.192 123.894 906.972 123.319 906.531 122.973C906.091 122.627 905.572 122.455 904.976 122.455C904.209 122.455 903.615 122.687 903.193 123.151C902.772 123.61 902.561 124.192 902.561 124.898V132H900.857V124.528C900.857 123.908 900.655 123.409 900.253 123.03C899.85 122.646 899.332 122.455 898.697 122.455C898.262 122.455 897.855 122.571 897.476 122.803C897.102 123.035 896.799 123.357 896.567 123.768C896.339 124.176 896.226 124.647 896.226 125.182V132H894.55ZM912.16 132V117.455H913.836V122.824H913.978C914.101 122.634 914.272 122.393 914.489 122.099C914.712 121.801 915.029 121.536 915.441 121.304C915.858 121.067 916.421 120.949 917.131 120.949C918.05 120.949 918.86 121.179 919.56 121.638C920.261 122.097 920.808 122.748 921.201 123.591C921.594 124.434 921.79 125.428 921.79 126.574C921.79 127.729 921.594 128.731 921.201 129.578C920.808 130.421 920.263 131.074 919.567 131.538C918.871 131.998 918.069 132.227 917.16 132.227C916.459 132.227 915.898 132.111 915.477 131.879C915.055 131.643 914.731 131.375 914.504 131.077C914.276 130.774 914.101 130.523 913.978 130.324H913.779V132H912.16ZM913.808 126.545C913.808 127.369 913.928 128.096 914.17 128.726C914.411 129.351 914.764 129.841 915.228 130.196C915.692 130.546 916.26 130.722 916.933 130.722C917.633 130.722 918.218 130.537 918.687 130.168C919.16 129.794 919.515 129.292 919.752 128.662C919.994 128.027 920.114 127.322 920.114 126.545C920.114 125.778 919.996 125.087 919.759 124.472C919.527 123.851 919.174 123.361 918.701 123.001C918.232 122.637 917.643 122.455 916.933 122.455C916.251 122.455 915.678 122.627 915.214 122.973C914.75 123.314 914.399 123.792 914.163 124.408C913.926 125.018 913.808 125.731 913.808 126.545ZM928.928 132.227C927.877 132.227 926.97 131.995 926.208 131.531C925.451 131.062 924.866 130.409 924.454 129.571C924.047 128.728 923.843 127.748 923.843 126.631C923.843 125.513 924.047 124.528 924.454 123.676C924.866 122.819 925.439 122.152 926.173 121.673C926.911 121.19 927.773 120.949 928.758 120.949C929.326 120.949 929.887 121.044 930.441 121.233C930.995 121.422 931.499 121.73 931.954 122.156C932.408 122.578 932.771 123.136 933.04 123.832C933.31 124.528 933.445 125.385 933.445 126.403V127.114H925.036V125.665H931.741C931.741 125.049 931.618 124.5 931.371 124.017C931.13 123.534 930.784 123.153 930.335 122.874C929.889 122.594 929.364 122.455 928.758 122.455C928.09 122.455 927.513 122.62 927.025 122.952C926.542 123.278 926.17 123.705 925.91 124.23C925.649 124.756 925.519 125.319 925.519 125.92V126.886C925.519 127.71 925.661 128.409 925.945 128.982C926.234 129.55 926.634 129.983 927.146 130.281C927.657 130.575 928.251 130.722 928.928 130.722C929.369 130.722 929.766 130.66 930.121 130.537C930.481 130.409 930.791 130.22 931.052 129.969C931.312 129.713 931.513 129.396 931.656 129.017L933.275 129.472C933.104 130.021 932.818 130.504 932.415 130.92C932.013 131.332 931.516 131.654 930.924 131.886C930.332 132.114 929.667 132.227 928.928 132.227ZM935.995 132V121.091H937.614V122.739H937.728C937.927 122.199 938.287 121.761 938.808 121.425C939.328 121.089 939.915 120.92 940.569 120.92C940.692 120.92 940.846 120.923 941.031 120.928C941.215 120.932 941.355 120.939 941.45 120.949V122.653C941.393 122.639 941.263 122.618 941.059 122.589C940.86 122.556 940.649 122.54 940.427 122.54C939.897 122.54 939.423 122.651 939.006 122.874C938.594 123.091 938.268 123.394 938.026 123.783C937.79 124.166 937.671 124.604 937.671 125.097V132H935.995ZM948.864 121.091V122.511H943.211V121.091H948.864ZM944.859 118.477H946.535V128.875C946.535 129.348 946.603 129.704 946.741 129.94C946.883 130.172 947.063 130.329 947.281 130.409C947.503 130.485 947.737 130.523 947.984 130.523C948.168 130.523 948.32 130.513 948.438 130.494C948.557 130.471 948.651 130.452 948.722 130.438L949.063 131.943C948.95 131.986 948.791 132.028 948.587 132.071C948.384 132.118 948.126 132.142 947.813 132.142C947.34 132.142 946.876 132.04 946.421 131.837C945.971 131.633 945.597 131.323 945.299 130.906C945.005 130.49 944.859 129.964 944.859 129.33V118.477Z" fill="#8190B4"/>
</g>
<defs>
<radialGradient id="paint0_radial_208_2440" cx="0" cy="0" r="1" gradientUnits="userSpaceOnUse" gradientTransform="translate(422 120) scale(68)">
<stop stop-color="#3B82F6" stop-opacity="0.52"/>
<stop offset="1" stop-color="#3B82F6" stop-opacity="0"/>
</radialGradient>
<linearGradient id="paint1_linear_208_2440" x1="422" y1="64" x2="422" y2="176" gradientUnits="userSpaceOnUse">
<stop stop-color="#7DB7FF"/>
<stop offset="0.52" stop-color="#2563EB"/>
<stop offset="1" stop-color="#1E2A78"/>
</linearGradient>
<linearGradient id="paint2_linear_208_2440" x1="366" y1="120" x2="422" y2="120" gradientUnits="userSpaceOnUse">
<stop stop-color="#18265F"/>
<stop offset="1" stop-color="#2546A5"/>
</linearGradient>
<linearGradient id="paint3_linear_208_2440" x1="422" y1="120" x2="478" y2="120" gradientUnits="userSpaceOnUse">
<stop stop-color="#93C5FD"/>
<stop offset="1" stop-color="#3B82F6"/>
</linearGradient>
<radialGradient id="paint4_radial_208_2440" cx="0" cy="0" r="1" gradientUnits="userSpaceOnUse" gradientTransform="translate(422 120) scale(16)">
<stop stop-color="white"/>
<stop offset="0.58" stop-color="#BFDBFE"/>
<stop offset="1" stop-color="#3B82F6"/>
</radialGradient>
<clipPath id="clip0_208_2440">
<rect width="1304" height="240" fill="white"/>
</clipPath>
</defs>
</svg>
