<svg width="1200" height="240" viewBox="0 0 1200 240" fill="none" xmlns="http://www.w3.org/2000/svg">
<g clip-path="url(#clip0_208_2440)">
<path d="M1199 1H1V239H1199V1Z" stroke="#172554" stroke-opacity="0.45"/>
<path d="M1200 0H0V240H1200V0Z" fill="#020817"/>
<path d="M331 188C368.555 188 399 157.555 399 120C399 82.4446 368.555 52 331 52C293.445 52 263 82.4446 263 120C263 157.555 293.445 188 331 188Z" fill="url(#paint0_radial_208_2440)"/>
<path d="M331 64L387 120L331 176L275 120L331 64Z" fill="url(#paint1_linear_208_2440)"/>
<path d="M331 64L275 120L331 176V120V64Z" fill="url(#paint2_linear_208_2440)" fill-opacity="0.96"/>
<path d="M331 64L387 120L331 176V120V64Z" fill="url(#paint3_linear_208_2440)" fill-opacity="0.88"/>
<path d="M331 64L387 120H331H275L331 64Z" fill="white" fill-opacity="0.09"/>
<path d="M331 88L363 120L331 152L299 120L331 88Z" fill="#081226" stroke="#93C5FD" stroke-opacity="0.58" stroke-width="2.4"/>
<path d="M331 129.5C336.247 129.5 340.5 125.247 340.5 120C340.5 114.753 336.247 110.5 331 110.5C325.753 110.5 321.5 114.753 321.5 120C321.5 125.247 325.753 129.5 331 129.5Z" fill="url(#paint4_radial_208_2440)"/>
<path d="M331 123.5C332.933 123.5 334.5 121.933 334.5 120C334.5 118.067 332.933 116.5 331 116.5C329.067 116.5 327.5 118.067 327.5 120C327.5 121.933 329.067 123.5 331 123.5Z" fill="white"/>
<path d="M420.428 132H412.19L424.743 95.6364H434.651L447.186 132H438.947L429.839 103.946H429.555L420.428 132ZM419.913 117.707H439.374V123.708H419.913V117.707ZM457.742 104.727L462.749 114.262L467.88 104.727H475.64L467.738 118.364L475.853 132H468.129L462.749 122.572L457.458 132H449.645L457.742 118.364L449.929 104.727H457.742ZM480.132 132V104.727H487.696V132H480.132ZM483.931 101.212C482.807 101.212 481.842 100.839 481.037 100.093C480.244 99.3355 479.848 98.4299 479.848 97.3764C479.848 96.3348 480.244 95.4411 481.037 94.6953C481.842 93.9377 482.807 93.5589 483.931 93.5589C485.056 93.5589 486.015 93.9377 486.808 94.6953C487.613 95.4411 488.015 96.3348 488.015 97.3764C488.015 98.4299 487.613 99.3355 486.808 100.093C486.015 100.839 485.056 101.212 483.931 101.212ZM506.077 132.533C503.319 132.533 500.934 131.947 498.922 130.775C496.921 129.591 495.376 127.946 494.287 125.839C493.198 123.72 492.654 121.264 492.654 118.47C492.654 115.653 493.198 113.191 494.287 111.084C495.376 108.965 496.921 107.32 498.922 106.148C500.934 104.964 503.319 104.372 506.077 104.372C508.835 104.372 511.215 104.964 513.215 106.148C515.227 107.32 516.778 108.965 517.867 111.084C518.956 113.191 519.501 115.653 519.501 118.47C519.501 121.264 518.956 123.72 517.867 125.839C516.778 127.946 515.227 129.591 513.215 130.775C511.215 131.947 508.835 132.533 506.077 132.533ZM506.113 126.673C507.367 126.673 508.415 126.318 509.256 125.608C510.096 124.886 510.729 123.903 511.155 122.661C511.593 121.418 511.812 120.003 511.812 118.417C511.812 116.831 511.593 115.416 511.155 114.173C510.729 112.93 510.096 111.948 509.256 111.226C508.415 110.504 507.367 110.143 506.113 110.143C504.846 110.143 503.781 110.504 502.917 111.226C502.064 111.948 501.419 112.93 500.981 114.173C500.555 115.416 500.342 116.831 500.342 118.417C500.342 120.003 500.555 121.418 500.981 122.661C501.419 123.903 502.064 124.886 502.917 125.608C503.781 126.318 504.846 126.673 506.113 126.673ZM548.966 104.727L539.431 132H530.909L521.374 104.727H529.364L535.028 124.241H535.312L540.958 104.727H548.966ZM559.881 132.515C558.141 132.515 556.591 132.213 555.229 131.609C553.868 130.994 552.791 130.088 551.998 128.893C551.217 127.685 550.826 126.182 550.826 124.383C550.826 122.868 551.104 121.595 551.661 120.565C552.217 119.536 552.974 118.707 553.933 118.08C554.892 117.452 555.981 116.979 557.2 116.659C558.431 116.339 559.722 116.115 561.071 115.984C562.657 115.819 563.936 115.665 564.906 115.523C565.877 115.369 566.581 115.144 567.019 114.848C567.457 114.552 567.676 114.114 567.676 113.534V113.428C567.676 112.303 567.321 111.433 566.611 110.817C565.912 110.202 564.918 109.894 563.628 109.894C562.267 109.894 561.183 110.196 560.379 110.8C559.574 111.392 559.041 112.137 558.781 113.037L551.785 112.469C552.14 110.812 552.838 109.379 553.88 108.172C554.922 106.953 556.265 106.018 557.911 105.366C559.568 104.704 561.485 104.372 563.663 104.372C565.179 104.372 566.629 104.55 568.013 104.905C569.41 105.26 570.647 105.81 571.724 106.556C572.813 107.302 573.672 108.261 574.299 109.433C574.926 110.593 575.24 111.983 575.24 113.605V132H568.067V128.218H567.854C567.416 129.07 566.83 129.822 566.096 130.473C565.362 131.112 564.48 131.615 563.45 131.982C562.42 132.337 561.231 132.515 559.881 132.515ZM562.048 127.295C563.16 127.295 564.143 127.076 564.995 126.638C565.847 126.188 566.516 125.584 567.001 124.827C567.487 124.069 567.729 123.211 567.729 122.252V119.358C567.493 119.512 567.167 119.654 566.753 119.784C566.35 119.902 565.895 120.015 565.386 120.121C564.877 120.216 564.368 120.305 563.859 120.388C563.35 120.459 562.888 120.524 562.474 120.583C561.586 120.713 560.811 120.92 560.148 121.205C559.485 121.489 558.97 121.873 558.603 122.359C558.236 122.832 558.053 123.424 558.053 124.134C558.053 125.164 558.425 125.951 559.171 126.496C559.929 127.028 560.888 127.295 562.048 127.295ZM588.672 116.233V132H581.108V104.727H588.317V109.539H588.637C589.24 107.953 590.252 106.698 591.673 105.775C593.093 104.84 594.816 104.372 596.84 104.372C598.734 104.372 600.385 104.786 601.794 105.615C603.202 106.444 604.297 107.627 605.078 109.166C605.86 110.693 606.25 112.516 606.25 114.635V132H598.686V115.984C598.698 114.315 598.272 113.013 597.408 112.078C596.544 111.131 595.354 110.658 593.839 110.658C592.821 110.658 591.922 110.877 591.14 111.315C590.371 111.753 589.767 112.392 589.329 113.232C588.903 114.061 588.684 115.061 588.672 116.233ZM624.534 132.533C621.741 132.533 619.338 131.941 617.325 130.757C615.325 129.562 613.786 127.904 612.709 125.786C611.644 123.667 611.111 121.228 611.111 118.47C611.111 115.677 611.65 113.226 612.727 111.119C613.816 109 615.36 107.349 617.361 106.165C619.361 104.97 621.741 104.372 624.499 104.372C626.878 104.372 628.961 104.804 630.749 105.668C632.536 106.532 633.951 107.746 634.992 109.308C636.034 110.871 636.608 112.705 636.715 114.812H629.577C629.376 113.451 628.843 112.356 627.979 111.528C627.127 110.687 626.008 110.267 624.623 110.267C623.451 110.267 622.427 110.587 621.551 111.226C620.687 111.853 620.012 112.771 619.527 113.978C619.042 115.185 618.799 116.647 618.799 118.364C618.799 120.104 619.036 121.583 619.509 122.803C619.995 124.022 620.675 124.951 621.551 125.59C622.427 126.229 623.451 126.549 624.623 126.549C625.487 126.549 626.262 126.371 626.949 126.016C627.647 125.661 628.222 125.146 628.671 124.472C629.133 123.785 629.435 122.962 629.577 122.004H636.715C636.596 124.087 636.028 125.922 635.01 127.508C634.004 129.082 632.613 130.313 630.838 131.201C629.062 132.089 626.961 132.533 624.534 132.533ZM653.987 132.533C651.181 132.533 648.766 131.964 646.742 130.828C644.73 129.68 643.179 128.058 642.09 125.963C641.001 123.856 640.457 121.364 640.457 118.488C640.457 115.683 641.001 113.22 642.09 111.102C643.179 108.983 644.712 107.331 646.689 106.148C648.678 104.964 651.009 104.372 653.685 104.372C655.484 104.372 657.159 104.662 658.71 105.242C660.272 105.81 661.633 106.669 662.793 107.817C663.965 108.965 664.877 110.409 665.528 112.149C666.179 113.877 666.504 115.902 666.504 118.222V120.299H643.475V115.612H659.384C659.384 114.522 659.147 113.558 658.674 112.717C658.201 111.877 657.544 111.22 656.703 110.746C655.875 110.261 654.91 110.018 653.809 110.018C652.661 110.018 651.643 110.285 650.755 110.817C649.879 111.338 649.192 112.043 648.695 112.93C648.198 113.806 647.944 114.783 647.932 115.86V120.317C647.932 121.666 648.18 122.832 648.678 123.815C649.187 124.797 649.903 125.555 650.826 126.087C651.749 126.62 652.844 126.886 654.111 126.886C654.951 126.886 655.721 126.768 656.419 126.531C657.117 126.295 657.715 125.939 658.212 125.466C658.71 124.992 659.088 124.412 659.349 123.726L666.344 124.188C665.989 125.868 665.261 127.336 664.161 128.591C663.071 129.834 661.663 130.804 659.935 131.503C658.218 132.189 656.236 132.533 653.987 132.533Z" fill="#F8FAFC"/>
<path d="M692.466 129V108.636H694.812V116.153H695.011C695.184 115.888 695.422 115.55 695.727 115.139C696.039 114.722 696.483 114.35 697.06 114.026C697.643 113.694 698.432 113.528 699.426 113.528C700.712 113.528 701.846 113.85 702.827 114.493C703.808 115.136 704.573 116.047 705.124 117.227C705.674 118.407 705.949 119.799 705.949 121.403C705.949 123.021 705.674 124.423 705.124 125.609C704.573 126.789 703.811 127.704 702.837 128.354C701.862 128.997 700.739 129.318 699.466 129.318C698.485 129.318 697.699 129.156 697.109 128.831C696.519 128.5 696.065 128.125 695.747 127.707C695.429 127.283 695.184 126.932 695.011 126.653H694.733V129H692.466ZM694.773 121.364C694.773 122.517 694.942 123.535 695.28 124.416C695.618 125.291 696.112 125.977 696.761 126.474C697.411 126.965 698.206 127.21 699.148 127.21C700.129 127.21 700.947 126.952 701.604 126.435C702.267 125.911 702.764 125.208 703.095 124.327C703.433 123.438 703.602 122.451 703.602 121.364C703.602 120.29 703.437 119.322 703.105 118.46C702.78 117.592 702.286 116.906 701.624 116.402C700.967 115.892 700.142 115.636 699.148 115.636C698.193 115.636 697.391 115.878 696.741 116.362C696.092 116.839 695.601 117.509 695.27 118.371C694.938 119.226 694.773 120.223 694.773 121.364ZM710.503 134.727C710.105 134.727 709.75 134.694 709.439 134.628C709.127 134.568 708.912 134.509 708.793 134.449L709.389 132.381C709.959 132.527 710.463 132.58 710.901 132.54C711.338 132.5 711.726 132.304 712.064 131.953C712.409 131.608 712.723 131.048 713.009 130.273L713.446 129.08L707.798 113.727H710.344L714.56 125.898H714.719L718.935 113.727H721.48L714.997 131.227C714.705 132.016 714.344 132.669 713.913 133.186C713.482 133.71 712.982 134.098 712.412 134.349C711.848 134.601 711.212 134.727 710.503 134.727ZM739.055 129H732.771V108.636H739.333C741.308 108.636 742.999 109.044 744.404 109.859C745.809 110.668 746.887 111.831 747.636 113.349C748.385 114.861 748.759 116.67 748.759 118.778C748.759 120.9 748.381 122.726 747.626 124.257C746.87 125.782 745.77 126.955 744.325 127.777C742.879 128.592 741.123 129 739.055 129ZM735.237 126.812H738.896C740.579 126.812 741.975 126.488 743.082 125.838C744.189 125.188 745.014 124.264 745.558 123.064C746.101 121.864 746.373 120.436 746.373 118.778C746.373 117.134 746.104 115.719 745.567 114.533C745.031 113.339 744.228 112.425 743.161 111.788C742.094 111.145 740.765 110.824 739.174 110.824H735.237V126.812ZM757.072 129.358C756.104 129.358 755.226 129.176 754.437 128.811C753.648 128.44 753.022 127.906 752.558 127.21C752.094 126.508 751.862 125.659 751.862 124.665C751.862 123.79 752.034 123.08 752.379 122.537C752.723 121.987 753.184 121.556 753.761 121.244C754.337 120.933 754.974 120.701 755.67 120.548C756.372 120.389 757.078 120.263 757.788 120.17C758.716 120.051 759.468 119.962 760.045 119.902C760.628 119.836 761.052 119.726 761.317 119.574C761.589 119.421 761.725 119.156 761.725 118.778V118.699C761.725 117.718 761.457 116.955 760.92 116.412C760.389 115.868 759.584 115.597 758.504 115.597C757.383 115.597 756.505 115.842 755.869 116.332C755.232 116.823 754.785 117.347 754.526 117.903L752.299 117.108C752.697 116.18 753.227 115.457 753.89 114.94C754.559 114.417 755.289 114.052 756.077 113.847C756.873 113.634 757.655 113.528 758.424 113.528C758.915 113.528 759.478 113.588 760.114 113.707C760.757 113.82 761.377 114.055 761.974 114.413C762.577 114.771 763.077 115.312 763.475 116.034C763.873 116.757 764.072 117.724 764.072 118.938V129H761.725V126.932H761.606C761.447 127.263 761.182 127.618 760.81 127.996C760.439 128.374 759.945 128.695 759.329 128.96C758.712 129.225 757.96 129.358 757.072 129.358ZM757.43 127.25C758.358 127.25 759.14 127.068 759.776 126.703C760.419 126.339 760.903 125.868 761.228 125.291C761.559 124.714 761.725 124.108 761.725 123.472V121.324C761.626 121.443 761.407 121.553 761.069 121.652C760.737 121.745 760.353 121.828 759.915 121.901C759.485 121.967 759.064 122.027 758.653 122.08C758.248 122.126 757.92 122.166 757.668 122.199C757.058 122.278 756.488 122.408 755.958 122.587C755.434 122.759 755.01 123.021 754.685 123.372C754.367 123.717 754.208 124.187 754.208 124.784C754.208 125.599 754.51 126.216 755.113 126.634C755.723 127.045 756.495 127.25 757.43 127.25ZM770.701 119.812V129H768.355V113.727H770.622V116.114H770.821C771.179 115.338 771.722 114.715 772.451 114.244C773.181 113.767 774.122 113.528 775.275 113.528C776.309 113.528 777.214 113.741 777.99 114.165C778.765 114.582 779.368 115.219 779.799 116.074C780.23 116.922 780.446 117.996 780.446 119.295V129H778.099V119.455C778.099 118.255 777.788 117.32 777.164 116.651C776.541 115.974 775.686 115.636 774.599 115.636C773.85 115.636 773.181 115.799 772.591 116.124C772.007 116.448 771.547 116.922 771.208 117.545C770.87 118.169 770.701 118.924 770.701 119.812ZM785.698 134.727C785.3 134.727 784.946 134.694 784.634 134.628C784.323 134.568 784.107 134.509 783.988 134.449L784.585 132.381C785.155 132.527 785.658 132.58 786.096 132.54C786.533 132.5 786.921 132.304 787.259 131.953C787.604 131.608 787.919 131.048 788.204 130.273L788.641 129.08L782.994 113.727H785.539L789.755 125.898H789.914L794.13 113.727H796.675L790.192 131.227C789.901 132.016 789.54 132.669 789.109 133.186C788.678 133.71 788.177 134.098 787.607 134.349C787.044 134.601 786.407 134.727 785.698 134.727ZM805.629 129.318C804.158 129.318 802.888 128.993 801.821 128.344C800.76 127.688 799.942 126.773 799.365 125.599C798.795 124.42 798.51 123.047 798.51 121.483C798.51 119.919 798.795 118.54 799.365 117.347C799.942 116.147 800.744 115.212 801.771 114.543C802.805 113.866 804.012 113.528 805.391 113.528C806.186 113.528 806.972 113.661 807.747 113.926C808.523 114.191 809.229 114.622 809.865 115.219C810.501 115.809 811.009 116.591 811.386 117.565C811.764 118.54 811.953 119.74 811.953 121.165V122.159H800.18V120.131H809.567C809.567 119.269 809.394 118.5 809.05 117.824C808.712 117.148 808.228 116.614 807.598 116.223C806.975 115.832 806.239 115.636 805.391 115.636C804.456 115.636 803.647 115.868 802.964 116.332C802.288 116.79 801.768 117.386 801.403 118.122C801.039 118.858 800.857 119.647 800.857 120.489V121.841C800.857 122.994 801.055 123.972 801.453 124.774C801.857 125.57 802.418 126.176 803.134 126.594C803.849 127.005 804.681 127.21 805.629 127.21C806.246 127.21 806.803 127.124 807.3 126.952C807.804 126.773 808.238 126.508 808.602 126.156C808.967 125.798 809.249 125.354 809.447 124.824L811.714 125.46C811.476 126.229 811.075 126.905 810.511 127.489C809.948 128.065 809.252 128.516 808.423 128.841C807.595 129.159 806.663 129.318 805.629 129.318ZM817.869 108.636V129H815.523V108.636H817.869ZM830.36 129V108.636H832.826V126.812H842.292V129H830.36ZM850.287 129.358C849.319 129.358 848.44 129.176 847.652 128.811C846.863 128.44 846.236 127.906 845.772 127.21C845.308 126.508 845.076 125.659 845.076 124.665C845.076 123.79 845.249 123.08 845.593 122.537C845.938 121.987 846.399 121.556 846.975 121.244C847.552 120.933 848.189 120.701 848.885 120.548C849.587 120.389 850.293 120.263 851.002 120.17C851.931 120.051 852.683 119.962 853.26 119.902C853.843 119.836 854.267 119.726 854.532 119.574C854.804 119.421 854.94 119.156 854.94 118.778V118.699C854.94 117.718 854.672 116.955 854.135 116.412C853.604 115.868 852.799 115.597 851.718 115.597C850.598 115.597 849.72 115.842 849.083 116.332C848.447 116.823 848 117.347 847.741 117.903L845.514 117.108C845.912 116.18 846.442 115.457 847.105 114.94C847.774 114.417 848.503 114.052 849.292 113.847C850.088 113.634 850.87 113.528 851.639 113.528C852.129 113.528 852.693 113.588 853.329 113.707C853.972 113.82 854.592 114.055 855.189 114.413C855.792 114.771 856.292 115.312 856.69 116.034C857.088 116.757 857.287 117.724 857.287 118.938V129H854.94V126.932H854.821C854.662 127.263 854.396 127.618 854.025 127.996C853.654 128.374 853.16 128.695 852.544 128.96C851.927 129.225 851.175 129.358 850.287 129.358ZM850.645 127.25C851.573 127.25 852.355 127.068 852.991 126.703C853.634 126.339 854.118 125.868 854.443 125.291C854.774 124.714 854.94 124.108 854.94 123.472V121.324C854.841 121.443 854.622 121.553 854.284 121.652C853.952 121.745 853.568 121.828 853.13 121.901C852.699 121.967 852.279 122.027 851.868 122.08C851.463 122.126 851.135 122.166 850.883 122.199C850.273 122.278 849.703 122.408 849.173 122.587C848.649 122.759 848.225 123.021 847.9 123.372C847.582 123.717 847.423 124.187 847.423 124.784C847.423 125.599 847.725 126.216 848.328 126.634C848.938 127.045 849.71 127.25 850.645 127.25ZM861.57 129V113.727H863.837V116.114H864.036C864.354 115.298 864.867 114.665 865.577 114.214C866.286 113.757 867.138 113.528 868.132 113.528C869.14 113.528 869.978 113.757 870.648 114.214C871.324 114.665 871.851 115.298 872.229 116.114H872.388C872.779 115.325 873.366 114.698 874.148 114.234C874.93 113.764 875.868 113.528 876.962 113.528C878.327 113.528 879.444 113.956 880.312 114.811C881.181 115.66 881.615 116.982 881.615 118.778V129H879.268V118.778C879.268 117.652 878.96 116.846 878.344 116.362C877.727 115.878 877.001 115.636 876.166 115.636C875.092 115.636 874.26 115.961 873.67 116.611C873.08 117.254 872.786 118.069 872.786 119.057V129H870.399V118.54C870.399 117.671 870.117 116.972 869.554 116.442C868.991 115.905 868.265 115.636 867.376 115.636C866.767 115.636 866.196 115.799 865.666 116.124C865.143 116.448 864.718 116.899 864.393 117.476C864.075 118.046 863.916 118.705 863.916 119.455V129H861.57ZM886.224 129V108.636H888.57V116.153H888.769C888.942 115.888 889.18 115.55 889.485 115.139C889.797 114.722 890.241 114.35 890.817 114.026C891.401 113.694 892.19 113.528 893.184 113.528C894.47 113.528 895.603 113.85 896.585 114.493C897.566 115.136 898.331 116.047 898.881 117.227C899.432 118.407 899.707 119.799 899.707 121.403C899.707 123.021 899.432 124.423 898.881 125.609C898.331 126.789 897.569 127.704 896.594 128.354C895.62 128.997 894.496 129.318 893.224 129.318C892.243 129.318 891.457 129.156 890.867 128.831C890.277 128.5 889.823 128.125 889.505 127.707C889.187 127.283 888.942 126.932 888.769 126.653H888.491V129H886.224ZM888.531 121.364C888.531 122.517 888.7 123.535 889.038 124.416C889.376 125.291 889.87 125.977 890.519 126.474C891.169 126.965 891.964 127.21 892.906 127.21C893.887 127.21 894.705 126.952 895.362 126.435C896.024 125.911 896.522 125.208 896.853 124.327C897.191 123.438 897.36 122.451 897.36 121.364C897.36 120.29 897.194 119.322 896.863 118.46C896.538 117.592 896.044 116.906 895.381 116.402C894.725 115.892 893.9 115.636 892.906 115.636C891.951 115.636 891.149 115.878 890.499 116.362C889.85 116.839 889.359 117.509 889.028 118.371C888.696 119.226 888.531 120.223 888.531 121.364ZM909.7 129.318C908.228 129.318 906.959 128.993 905.891 128.344C904.831 127.688 904.012 126.773 903.435 125.599C902.865 124.42 902.58 123.047 902.58 121.483C902.58 119.919 902.865 118.54 903.435 117.347C904.012 116.147 904.814 115.212 905.842 114.543C906.876 113.866 908.082 113.528 909.461 113.528C910.256 113.528 911.042 113.661 911.817 113.926C912.593 114.191 913.299 114.622 913.935 115.219C914.572 115.809 915.079 116.591 915.457 117.565C915.835 118.54 916.023 119.74 916.023 121.165V122.159H904.251V120.131H913.637C913.637 119.269 913.465 118.5 913.12 117.824C912.782 117.148 912.298 116.614 911.668 116.223C911.045 115.832 910.309 115.636 909.461 115.636C908.526 115.636 907.718 115.868 907.035 116.332C906.359 116.79 905.838 117.386 905.474 118.122C905.109 118.858 904.927 119.647 904.927 120.489V121.841C904.927 122.994 905.126 123.972 905.523 124.774C905.928 125.57 906.488 126.176 907.204 126.594C907.92 127.005 908.752 127.21 909.7 127.21C910.316 127.21 910.873 127.124 911.37 126.952C911.874 126.773 912.308 126.508 912.673 126.156C913.037 125.798 913.319 125.354 913.518 124.824L915.785 125.46C915.546 126.229 915.145 126.905 914.582 127.489C914.018 128.065 913.322 128.516 912.494 128.841C911.665 129.159 910.734 129.318 909.7 129.318ZM919.593 129V113.727H921.86V116.034H922.019C922.298 115.278 922.801 114.665 923.531 114.195C924.26 113.724 925.082 113.489 925.996 113.489C926.169 113.489 926.384 113.492 926.643 113.499C926.901 113.505 927.097 113.515 927.229 113.528V115.915C927.15 115.895 926.968 115.865 926.683 115.825C926.404 115.779 926.109 115.756 925.798 115.756C925.055 115.756 924.392 115.911 923.809 116.223C923.232 116.528 922.775 116.952 922.437 117.496C922.105 118.033 921.94 118.646 921.94 119.335V129H919.593ZM937.61 113.727V115.716H929.695V113.727H937.61ZM932.002 110.068H934.349V124.625C934.349 125.288 934.445 125.785 934.637 126.116C934.836 126.441 935.088 126.66 935.393 126.773C935.704 126.879 936.032 126.932 936.377 126.932C936.636 126.932 936.848 126.919 937.013 126.892C937.179 126.859 937.312 126.832 937.411 126.812L937.888 128.92C937.729 128.98 937.507 129.04 937.222 129.099C936.937 129.166 936.576 129.199 936.138 129.199C935.476 129.199 934.826 129.056 934.19 128.771C933.56 128.486 933.036 128.052 932.619 127.469C932.208 126.885 932.002 126.15 932.002 125.261V110.068Z" fill="#8190B4"/>
</g>
<defs>
<radialGradient id="paint0_radial_208_2440" cx="0" cy="0" r="1" gradientUnits="userSpaceOnUse" gradientTransform="translate(331 120) scale(68)">
<stop stop-color="#3B82F6" stop-opacity="0.52"/>
<stop offset="1" stop-color="#3B82F6" stop-opacity="0"/>
</radialGradient>
<linearGradient id="paint1_linear_208_2440" x1="331" y1="64" x2="331" y2="176" gradientUnits="userSpaceOnUse">
<stop stop-color="#7DB7FF"/>
<stop offset="0.52" stop-color="#2563EB"/>
<stop offset="1" stop-color="#1E2A78"/>
</linearGradient>
<linearGradient id="paint2_linear_208_2440" x1="275" y1="120" x2="331" y2="120" gradientUnits="userSpaceOnUse">
<stop stop-color="#18265F"/>
<stop offset="1" stop-color="#2546A5"/>
</linearGradient>
<linearGradient id="paint3_linear_208_2440" x1="331" y1="120" x2="387" y2="120" gradientUnits="userSpaceOnUse">
<stop stop-color="#93C5FD"/>
<stop offset="1" stop-color="#3B82F6"/>
</linearGradient>
<radialGradient id="paint4_radial_208_2440" cx="0" cy="0" r="1" gradientUnits="userSpaceOnUse" gradientTransform="translate(331 120) scale(16)">
<stop stop-color="white"/>
<stop offset="0.58" stop-color="#BFDBFE"/>
<stop offset="1" stop-color="#3B82F6"/>
</radialGradient>
<clipPath id="clip0_208_2440">
<rect width="1200" height="240" fill="white"/>
</clipPath>
</defs>
</svg>
