<svg width="30" height="30" viewBox="0 0 30 30" fill="none" xmlns="http://www.w3.org/2000/svg">
<circle cx="14.9731" cy="14.9731" r="14.9731" fill="#020817"/>
<path d="M15.1344 26.404C21.3587 26.404 26.4045 21.3582 26.4045 15.1339C26.4045 8.90957 21.3587 3.86377 15.1344 3.86377C8.91006 3.86377 3.86426 8.90957 3.86426 15.1339C3.86426 21.3582 8.91006 26.404 15.1344 26.404Z" fill="url(#paint0_radial_6_17)"/>
<path d="M15.134 5.47412L24.7941 15.1342L15.134 24.7943L5.47388 15.1342L15.134 5.47412Z" fill="url(#paint1_linear_6_17)"/>
<path d="M15.134 5.47412L5.47388 15.1342L15.134 24.7943V15.1342V5.47412Z" fill="url(#paint2_linear_6_17)" fill-opacity="0.96"/>
<path d="M15.134 5.47412L24.7941 15.1342L15.134 24.7943V15.1342V5.47412Z" fill="url(#paint3_linear_6_17)" fill-opacity="0.88"/>
<path d="M15.134 5.47412L24.7941 15.1342H15.134H5.47388L15.134 5.47412Z" fill="white" fill-opacity="0.09"/>
<path d="M15.1343 9.49902L20.7694 15.1341L15.1343 20.7691L9.49927 15.1341L15.1343 9.49902Z" fill="#081226" stroke="#93C5FD" stroke-opacity="0.58" stroke-width="1.1"/>
<path d="M15.1341 16.8244C16.0678 16.8244 16.8246 16.0675 16.8246 15.1339C16.8246 14.2002 16.0678 13.4434 15.1341 13.4434C14.2005 13.4434 13.4436 14.2002 13.4436 15.1339C13.4436 16.0675 14.2005 16.8244 15.1341 16.8244Z" fill="url(#paint4_radial_6_17)"/>
<path d="M15.134 15.7378C15.4675 15.7378 15.7378 15.4675 15.7378 15.134C15.7378 14.8006 15.4675 14.5303 15.134 14.5303C14.8006 14.5303 14.5303 14.8006 14.5303 15.134C14.5303 15.4675 14.8006 15.7378 15.134 15.7378Z" fill="white"/>
<defs>
<radialGradient id="paint0_radial_6_17" cx="0" cy="0" r="1" gradientUnits="userSpaceOnUse" gradientTransform="translate(15.1344 15.1339) scale(11.2701)">
<stop stop-color="#3B82F6" stop-opacity="0.5"/>
<stop offset="1" stop-color="#3B82F6" stop-opacity="0"/>
</radialGradient>
<linearGradient id="paint1_linear_6_17" x1="15.134" y1="5.47412" x2="15.134" y2="24.7943" gradientUnits="userSpaceOnUse">
<stop stop-color="#7DB7FF"/>
<stop offset="0.52" stop-color="#2563EB"/>
<stop offset="1" stop-color="#1E2A78"/>
</linearGradient>
<linearGradient id="paint2_linear_6_17" x1="5.47388" y1="15.1342" x2="15.134" y2="15.1342" gradientUnits="userSpaceOnUse">
<stop stop-color="#18265F"/>
<stop offset="1" stop-color="#2546A5"/>
</linearGradient>
<linearGradient id="paint3_linear_6_17" x1="15.134" y1="15.1342" x2="24.7941" y2="15.1342" gradientUnits="userSpaceOnUse">
<stop stop-color="#93C5FD"/>
<stop offset="1" stop-color="#3B82F6"/>
</linearGradient>
<radialGradient id="paint4_radial_6_17" cx="0" cy="0" r="1" gradientUnits="userSpaceOnUse" gradientTransform="translate(15.1341 15.1339) scale(2.81753)">
<stop stop-color="white"/>
<stop offset="0.58" stop-color="#BFDBFE"/>
<stop offset="1" stop-color="#3B82F6"/>
</radialGradient>
</defs>
</svg>
