<svg width="64" height="64" viewBox="0 0 64 64" fill="none" xmlns="http://www.w3.org/2000/svg">
  <defs>
    <linearGradient id="ks-favicon-outer" x1="32" y1="8" x2="32" y2="56" gradientUnits="userSpaceOnUse">
      <stop offset="0" stop-color="#7DB7FF" />
      <stop offset="0.52" stop-color="#2563EB" />
      <stop offset="1" stop-color="#1E2A78" />
    </linearGradient>
    <linearGradient id="ks-favicon-left" x1="8" y1="32" x2="32" y2="32" gradientUnits="userSpaceOnUse">
      <stop offset="0" stop-color="#18265F" />
      <stop offset="1" stop-color="#2546A5" />
    </linearGradient>
    <linearGradient id="ks-favicon-right" x1="32" y1="32" x2="56" y2="32" gradientUnits="userSpaceOnUse">
      <stop offset="0" stop-color="#93C5FD" />
      <stop offset="1" stop-color="#3B82F6" />
    </linearGradient>
    <radialGradient id="ks-favicon-core" cx="32" cy="32" r="7" gradientUnits="userSpaceOnUse">
      <stop offset="0" stop-color="#FFFFFF" />
      <stop offset="0.58" stop-color="#BFDBFE" />
      <stop offset="1" stop-color="#3B82F6" />
    </radialGradient>
    <radialGradient id="ks-favicon-glow" cx="32" cy="32" r="28" gradientUnits="userSpaceOnUse">
      <stop offset="0" stop-color="#3B82F6" stop-opacity="0.5" />
      <stop offset="1" stop-color="#3B82F6" stop-opacity="0" />
    </radialGradient>
  </defs>
  <circle cx="32" cy="32" r="28" fill="url(#ks-favicon-glow)" />
  <path d="M32 8L56 32L32 56L8 32L32 8Z" fill="url(#ks-favicon-outer)" />
  <path d="M32 8L8 32L32 56V32Z" fill="url(#ks-favicon-left)" fill-opacity="0.96" />
  <path d="M32 8L56 32L32 56V32Z" fill="url(#ks-favicon-right)" fill-opacity="0.88" />
  <path d="M32 8L56 32H32H8L32 8Z" fill="#FFFFFF" fill-opacity="0.09" />
  <path d="M32 18L46 32L32 46L18 32L32 18Z" fill="#081226" stroke="#93C5FD" stroke-opacity="0.58" stroke-width="1.1" />
  <circle cx="32" cy="32" r="4.2" fill="url(#ks-favicon-core)" />
  <circle cx="32" cy="32" r="1.5" fill="#FFFFFF" />
</svg>
